<svg width="25" height="24" viewBox="0 0 25 24" fill="none" xmlns="http://www.w3.org/2000/svg">
<path d="M7.53795 20H4.10938V8.57141H7.53795V20ZM20.1094 20H16.6808V13.8948C16.6808 12.304 16.1139 11.512 14.9905 11.512C14.1002 11.512 13.5357 11.9554 13.2522 12.8434C13.2522 14.2857 13.2522 20 13.2522 20H9.82366C9.82366 20 9.86938 9.71427 9.82366 8.57141H12.5299L12.7391 10.8571H12.8099C13.5128 9.71427 14.6362 8.93941 16.1768 8.93941C17.3482 8.93941 18.2957 9.26513 19.0191 10.0834C19.7471 10.9028 20.1094 12.0023 20.1094 13.5463V20Z" fill="#434343"/>
<path d="M5.82221 7.42857C6.80054 7.42857 7.59364 6.66106 7.59364 5.71429C7.59364 4.76751 6.80054 4 5.82221 4C4.84388 4 4.05078 4.76751 4.05078 5.71429C4.05078 6.66106 4.84388 7.42857 5.82221 7.42857Z" fill="#434343"/>
</svg>
