<svg width="145" height="40" viewBox="0 0 145 40" fill="none" xmlns="http://www.w3.org/2000/svg">
<path d="M51.7334 2.82617L39.4546 39.1182H31.3198L24.5189 16.9547L17.718 39.1182H9.58319L0 10.7945L8.29883 9.51628L13.69 26.9945H13.8231L18.7749 7.9034L29.8188 6.20221L35.2147 26.9945H35.3215L42.3514 4.27327L51.7334 2.82772V2.82617ZM49.369 25.2856C49.369 23.2559 49.7156 21.3471 50.4104 19.5576C51.0754 17.814 52.0819 16.221 53.3706 14.8724C54.6503 13.5368 56.207 12.4817 58.0376 11.7086C59.8698 10.9339 61.9217 10.5466 64.1995 10.5466C66.0301 10.5466 67.675 10.8441 69.1327 11.4406C70.5919 12.0371 71.8267 12.7451 72.8403 13.5632L73.1869 11.4282H80.2014V39.1182H73.1869L72.814 37.008C71.7834 37.8276 70.5424 38.531 69.094 39.1182C67.644 39.7054 66.013 39.9998 64.1995 39.9998C61.9402 39.9998 59.8961 39.6125 58.0639 38.8378C56.2333 38.0631 54.6735 37.0126 53.383 35.6864C52.0858 34.3468 51.0744 32.7569 50.4104 31.0135C49.7094 29.186 49.3562 27.2432 49.369 25.2856V25.2856ZM57.6105 25.2592C57.6105 26.4166 57.8071 27.4671 58.1986 28.4106C58.5647 29.3159 59.1034 30.141 59.7847 30.84C60.4516 31.5171 61.2346 32.0377 62.1321 32.4018C63.0432 32.7696 64.0172 32.9559 64.9995 32.9502C65.9818 32.9559 66.9558 32.7696 67.8669 32.4018C68.7453 32.0492 69.5433 31.5221 70.2128 30.8524C70.8975 30.1587 71.4331 29.3319 71.7865 28.423C72.1792 27.4152 72.3742 26.341 72.3606 25.2592C72.3606 24.1205 72.1656 23.0824 71.7726 22.1481C71.406 21.2514 70.8671 20.4354 70.1864 19.7467C69.5165 19.0768 68.718 18.5497 67.839 18.1973C66.9284 17.8297 65.955 17.6434 64.9732 17.6488C63.941 17.6488 62.977 17.8317 62.0795 18.1973C61.2031 18.5476 60.4082 19.075 59.7444 19.7467C59.0868 20.4129 58.5669 21.2139 58.1846 22.1481C57.8024 23.0824 57.6121 24.1205 57.6121 25.2592H57.6105ZM113.907 11.4282L102.306 39.1182H94.9174L83.3442 11.4282H92.1722L98.5708 28.0636H98.6234L105.051 11.4282H113.906H113.907ZM129.53 10.545C131.823 10.545 133.917 10.9324 135.813 11.7071C137.705 12.4817 139.331 13.5368 140.692 14.8724C142.052 16.2063 143.131 17.7994 143.867 19.5576C144.627 21.3707 145.013 23.3193 145 25.2856C145 25.8557 144.978 26.3004 144.933 26.6211C144.888 26.9418 144.84 27.2626 144.786 27.5817H122.356C122.587 28.454 122.947 29.238 123.436 29.9321C124.375 31.2752 125.707 32.2926 127.249 32.8433C127.999 33.1091 128.789 33.2443 129.584 33.2431C130.881 33.2431 132.011 32.9673 132.972 32.4157C133.931 31.8641 134.66 31.1607 135.158 30.3055H144.065C143.623 31.5801 142.993 32.7816 142.197 33.8706C141.335 35.0635 140.29 36.1133 139.102 36.9817C137.877 37.8896 136.459 38.6193 134.85 39.1709C133.241 39.7225 131.467 39.9998 129.529 39.9998C127.269 39.9998 125.199 39.6125 123.314 38.8378C121.429 38.0631 119.811 37.0095 118.46 35.674C117.107 34.3365 116.033 32.7434 115.3 30.9872C114.541 29.1829 114.155 27.2433 114.166 25.2856C114.166 23.2559 114.539 21.3471 115.286 19.5576C116.013 17.7985 117.088 16.2047 118.446 14.8724C119.844 13.5126 121.492 12.438 123.3 11.7086C125.177 10.9339 127.252 10.5466 129.529 10.5466L129.53 10.545ZM129.584 17.088C127.859 17.088 126.401 17.5249 125.21 18.3972C124.024 19.2617 123.123 20.461 122.622 21.8414H136.224C135.709 20.4346 134.892 19.2911 133.772 18.4096C132.651 17.5295 131.255 17.088 129.584 17.088V17.088Z" fill="#FF5900"/>
<path d="M78.0473 2.79849C78.0148 3.24161 77.8523 3.58866 77.5568 3.84431C77.2628 4.0984 76.8759 4.22545 76.3947 4.22545C75.8686 4.22545 75.4538 4.04727 75.1521 3.69247C74.8504 3.33767 74.6987 2.85117 74.6987 2.23143V1.98044C74.6987 1.58535 74.7683 1.23675 74.9076 0.936172C75.0331 0.650317 75.2411 0.408583 75.5049 0.242062C75.7761 0.0775821 76.0885 -0.0062472 76.4055 0.000362813C76.879 0.000362813 77.2612 0.12741 77.5506 0.381504C77.84 0.635597 78.0071 0.993498 78.052 1.45211H77.2071C77.1854 1.18717 77.1111 0.995047 76.9842 0.874198C76.8574 0.754898 76.6655 0.696022 76.4055 0.696022C76.1239 0.696022 75.9119 0.79673 75.7711 0.999695C75.6318 1.20111 75.5606 1.51563 75.556 1.94015V2.25002C75.556 2.69624 75.6241 3.02005 75.7571 3.22612C75.8933 3.43063 76.1053 3.53289 76.3947 3.53289C76.6562 3.53289 76.8512 3.47401 76.9796 3.35316C77.108 3.23386 77.1808 3.04949 77.2009 2.79849H78.0473V2.79849ZM82.8041 2.6637H82.1294V4.16812H81.283V0.0592382H82.8087C83.2946 0.0592382 83.6676 0.167693 83.9322 0.384602C84.1952 0.601512 84.3268 0.906734 84.3268 1.30182C84.3268 1.5807 84.2649 1.8162 84.1442 2.00368C84.0078 2.20286 83.8163 2.35791 83.5933 2.44989L84.4815 4.13094V4.16967H83.5732L82.8041 2.66525V2.6637ZM82.1294 1.97734H82.8118C82.9911 1.9886 83.1679 1.93035 83.3055 1.81466C83.3648 1.75684 83.4112 1.68696 83.4413 1.60973C83.4715 1.5325 83.4848 1.4497 83.4803 1.36689C83.4849 1.28347 83.4726 1.19997 83.4442 1.12143C83.4157 1.04288 83.3717 0.970908 83.3148 0.909833C83.2064 0.79828 83.0362 0.744052 82.8087 0.744052H82.1294V1.97734V1.97734ZM90.1203 2.38637H88.4955V3.48796H90.4035V4.16967H87.6506V0.0561395H90.3973V0.742503H88.4971V1.72169H90.1219V2.38482L90.1203 2.38637ZM95.8984 3.32063H94.416L94.1328 4.16812H93.2337L94.7626 0.0592382H95.5456L97.0822 4.16967H96.1847L95.8984 3.32218V3.32063ZM94.645 2.63581H95.6694L95.1541 1.09576L94.6434 2.63581H94.645ZM102.899 0.744052H101.641V4.16812H100.794V0.744052H99.5534V0.0576889H102.899V0.744052ZM108.532 2.38637H106.907V3.48796H108.815V4.16967H106.062V0.0561395H108.809V0.742503H106.911V1.72169H108.536V2.38482L108.532 2.38637ZM118.079 0.0592382L119.616 4.16967H118.715L118.43 3.32218H116.948L116.666 4.16967H115.766L117.295 0.0592382H118.079ZM117.686 1.0973L117.175 2.63736H118.203L117.686 1.0973Z" fill="white"/>
</svg>
