<svg width="162" height="14" viewBox="0 0 162 14" fill="none" xmlns="http://www.w3.org/2000/svg">
<path d="M3.41904 3.58398C4.36773 3.58398 5.09536 3.82346 5.60194 4.30241C6.10852 4.77214 6.36181 5.47214 6.36181 6.40241V10.9064H5.42233V9.77346C5.20128 10.1511 4.87431 10.4458 4.44141 10.6577C4.01773 10.8695 3.51115 10.9754 2.92167 10.9754C2.11115 10.9754 1.46641 10.782 0.987464 10.3952C0.508517 10.0083 0.269043 9.49714 0.269043 8.86162C0.269043 8.24451 0.490096 7.74714 0.932201 7.36951C1.38352 6.99188 2.09733 6.80306 3.07365 6.80306H5.38089V6.36096C5.38089 5.73464 5.20589 5.2603 4.85589 4.93793C4.50589 4.60635 3.9947 4.44056 3.32233 4.44056C2.86181 4.44056 2.4197 4.51885 1.99602 4.67543C1.57233 4.8228 1.20852 5.03004 0.904569 5.29714L0.462464 4.56491C0.830885 4.25175 1.27299 4.01227 1.78878 3.84648C2.30457 3.67148 2.84799 3.58398 3.41904 3.58398ZM3.07365 10.2017C3.62628 10.2017 4.10062 10.0774 4.49668 9.82872C4.89273 9.57083 5.18746 9.20241 5.38089 8.72346V7.5353H3.10128C1.85786 7.5353 1.23615 7.9682 1.23615 8.83398C1.23615 9.25767 1.39733 9.59385 1.7197 9.84254C2.04207 10.082 2.49339 10.2017 3.07365 10.2017Z" fill="white"/>
<path d="M17.0377 2.90678C17.7773 2.90678 18.4503 3.07733 19.0568 3.41843C19.6632 3.75953 20.139 4.23905 20.4842 4.85699C20.8293 5.47493 21.0019 6.19421 21.0019 7.01483C21.0019 7.83545 20.8293 8.55473 20.4842 9.17267C20.139 9.79061 19.6632 10.2701 19.0568 10.6112C18.4503 10.9523 17.7773 11.1229 17.0377 11.1229C16.022 11.1229 15.2232 10.8016 14.6414 10.1589V14H12.3339V3.02542H14.5379V3.94492C15.1098 3.25282 15.9431 2.90678 17.0377 2.90678ZM24.8478 0V14H22.5403V0H24.8478ZM37.3173 3.02542L39.5509 8.43856L41.7993 3.02542H44.0181L40.4236 11.4936C40.0588 12.4131 39.6076 13.0607 39.0702 13.4364C38.5327 13.8121 37.8844 14 37.1251 14C36.7109 14 36.3016 13.9357 35.8973 13.8072C35.493 13.6787 35.1627 13.5007 34.9063 13.2733L35.7494 11.6271C35.9269 11.7853 36.1315 11.9089 36.3633 11.9979C36.595 12.0869 36.8243 12.1314 37.0511 12.1314C37.3667 12.1314 37.623 12.0547 37.8203 11.9015C38.0175 11.7482 38.195 11.4936 38.3528 11.1377L38.3824 11.0636L34.9359 3.02542H37.3173ZM30.2025 2.90678C31.4351 2.90678 32.3818 3.20092 33.0425 3.7892C33.7032 4.37747 34.0335 5.26483 34.0335 6.45127V11.0042H31.8739V10.0106C31.44 10.7521 30.6314 11.1229 29.4481 11.1229C28.8367 11.1229 28.3066 11.0191 27.8579 10.8114C27.4093 10.6038 27.0666 10.3171 26.8299 9.95127C26.5932 9.58545 26.4749 9.1702 26.4749 8.70551C26.4749 7.96398 26.7535 7.38065 27.3106 6.95551C27.8678 6.53037 28.7282 6.3178 29.8918 6.3178H31.726C31.726 5.81356 31.5732 5.42549 31.2675 5.1536C30.9618 4.88171 30.5032 4.74576 29.8918 4.74576C29.4678 4.74576 29.0512 4.8125 28.6419 4.94597C28.2327 5.07945 27.8851 5.25989 27.5991 5.48729L26.7707 3.87076C27.2046 3.56427 27.7248 3.32698 28.3313 3.1589C28.9377 2.99082 29.5615 2.90678 30.2025 2.90678ZM31.726 7.66737H30.1433C29.1966 7.66737 28.7233 7.97881 28.7233 8.6017C28.7233 8.8983 28.8391 9.13312 29.0709 9.30614C29.3026 9.47917 29.6206 9.56568 30.025 9.56568C30.4194 9.56568 30.7695 9.47422 31.0752 9.29131C31.3809 9.1084 31.5978 8.83898 31.726 8.48305V7.66737ZM16.6383 4.80508C16.0466 4.80508 15.561 5.0053 15.1813 5.40572C14.8016 5.80614 14.6118 6.34251 14.6118 7.01483C14.6118 7.68715 14.8016 8.22352 15.1813 8.62394C15.561 9.02436 16.0466 9.22458 16.6383 9.22458C17.23 9.22458 17.7156 9.02436 18.0953 8.62394C18.475 8.22352 18.6648 7.68715 18.6648 7.01483C18.6648 6.34251 18.475 5.80614 18.0953 5.40572C17.7156 5.0053 17.23 4.80508 16.6383 4.80508Z" fill="white"/>
<path d="M85.385 3.06992C86.382 3.06992 87.1741 3.35911 87.7615 3.9375C88.3488 4.51589 88.6425 5.3637 88.6425 6.48093V14H87.221V6.64407C87.221 5.88277 87.0384 5.30932 86.6732 4.92373C86.3079 4.53814 85.7848 4.34534 85.1036 4.34534C84.3337 4.34534 83.7266 4.57027 83.2824 5.02013C82.8382 5.46999 82.6161 6.11512 82.6161 6.95551V11.0042H81.1946V3.14407H82.5569V4.33051C82.8431 3.92514 83.2306 3.6137 83.7192 3.39619C84.2078 3.17867 84.7631 3.06992 85.385 3.06992ZM48.7378 3.06992C49.3301 3.06992 49.8804 3.17867 50.3888 3.39619C50.8972 3.6137 51.3142 3.93503 51.64 4.36017V3.14407H52.9874V9.93644C52.9874 11.3107 52.6469 12.3266 51.9657 12.9841C51.2846 13.6416 50.2679 13.9703 48.9155 13.9703C48.1752 13.9703 47.4694 13.869 46.7981 13.6663C46.1269 13.4636 45.5839 13.1744 45.1694 12.7987L45.8505 11.7013C46.2157 12.0177 46.6673 12.2673 47.2053 12.4502C47.7433 12.6331 48.2986 12.7246 48.8711 12.7246C49.7891 12.7246 50.4678 12.5071 50.907 12.072C51.3463 11.637 51.566 10.9746 51.566 10.0847V9.46187C51.2303 9.86724 50.8182 10.1713 50.3296 10.3739C49.8409 10.5766 49.3104 10.678 48.7378 10.678C47.9876 10.678 47.309 10.5173 46.7019 10.196C46.0948 9.87465 45.6185 9.42479 45.273 8.8464C44.9275 8.26801 44.7548 7.60805 44.7548 6.86653C44.7548 6.125 44.9275 5.46504 45.273 4.88665C45.6185 4.30826 46.0948 3.86088 46.7019 3.54449C47.309 3.22811 47.9876 3.06992 48.7378 3.06992ZM65.1291 3.06992C65.9089 3.06992 66.6073 3.24047 67.2243 3.58157C67.8412 3.92267 68.3249 4.39725 68.6754 5.0053C69.0258 5.61335 69.201 6.30297 69.201 7.07416C69.201 7.84534 69.0258 8.53496 68.6754 9.14301C68.3249 9.75106 67.8412 10.2281 67.2243 10.5742C66.6073 10.9202 65.9089 11.0932 65.1291 11.0932C64.3493 11.0932 63.6484 10.9202 63.0265 10.5742C62.4046 10.2281 61.9185 9.75106 61.568 9.14301C61.2176 8.53496 61.0424 7.84534 61.0424 7.07416C61.0424 6.30297 61.2176 5.61335 61.568 5.0053C61.9185 4.39725 62.4046 3.92267 63.0265 3.58157C63.6484 3.24047 64.3493 3.06992 65.1291 3.06992ZM72.5178 3.14407V7.50424C72.5178 8.26554 72.7004 8.84146 73.0656 9.23199C73.4308 9.62253 73.954 9.8178 74.6351 9.8178C75.3854 9.8178 75.9776 9.5904 76.412 9.1356C76.8463 8.68079 77.0635 8.03814 77.0635 7.20763V3.14407H78.485V11.0042H77.1375V9.8178C76.8512 10.2232 76.4737 10.5371 76.0048 10.7595C75.5359 10.982 75.0251 11.0932 74.4723 11.0932C73.4259 11.0932 72.6017 10.804 71.9995 10.2256C71.3974 9.64725 71.0963 8.79449 71.0963 7.66738V3.14407H72.5178ZM98.6816 0V11.0042H97.3194V9.75848C97.0035 10.1935 96.6037 10.5247 96.12 10.7521C95.6363 10.9795 95.1033 11.0932 94.5209 11.0932C93.7608 11.0932 93.0796 10.9251 92.4775 10.589C91.8754 10.2528 91.404 9.78072 91.0634 9.17267C90.7229 8.56462 90.5526 7.86512 90.5526 7.07416C90.5526 6.28319 90.7229 5.58616 91.0634 4.98305C91.404 4.37995 91.8754 3.91031 92.4775 3.57415C93.0796 3.238 93.7608 3.06992 94.5209 3.06992C95.0835 3.06992 95.6018 3.1762 96.0756 3.38877C96.5494 3.60134 96.9443 3.91526 97.2601 4.33051V0H98.6816ZM103.908 3.06992C104.432 3.06992 104.955 3.13418 105.478 3.26271C106.001 3.39124 106.431 3.56427 106.766 3.78178L106.159 4.9089C105.517 4.49365 104.762 4.28602 103.894 4.28602C103.291 4.28602 102.832 4.38489 102.517 4.58263C102.201 4.78037 102.043 5.04237 102.043 5.36865C102.043 5.62571 102.132 5.82839 102.309 5.9767C102.487 6.125 102.707 6.23376 102.968 6.30297C103.23 6.37218 103.598 6.45127 104.071 6.54026C104.703 6.64901 105.214 6.76519 105.604 6.88877C105.994 7.01236 106.327 7.22246 106.603 7.51907C106.88 7.81568 107.018 8.23094 107.018 8.76483C107.018 9.4767 106.714 10.0427 106.107 10.4629C105.5 10.8831 104.673 11.0932 103.627 11.0932C102.985 11.0932 102.369 11.0067 101.776 10.8337C101.184 10.6607 100.72 10.4407 100.384 10.1737L100.977 9.04661C101.322 9.29379 101.742 9.49153 102.235 9.63983C102.729 9.78814 103.227 9.86229 103.731 9.86229C104.975 9.86229 105.596 9.50636 105.596 8.79449C105.596 8.55721 105.513 8.36935 105.345 8.23094C105.177 8.09252 104.967 7.99118 104.715 7.92691C104.464 7.86264 104.106 7.79096 103.642 7.71187C103.01 7.613 102.494 7.4993 102.095 7.37077C101.695 7.24223 101.352 7.02472 101.066 6.71822C100.779 6.41173 100.636 5.98164 100.636 5.42797C100.636 4.7161 100.932 4.14513 101.525 3.71504C102.117 3.28496 102.911 3.06992 103.908 3.06992ZM59.9171 3.06992V4.44915C59.8381 4.43927 59.7295 4.43432 59.5913 4.43432C58.8213 4.43432 58.2167 4.6642 57.7775 5.12394C57.3382 5.58369 57.1185 6.2387 57.1185 7.08898V11.0042H55.6971V3.14407H57.0593V4.46398C57.3061 4.00918 57.6713 3.66314 58.155 3.42585C58.6387 3.18856 59.2261 3.06992 59.9171 3.06992ZM65.1291 4.31568C64.6257 4.31568 64.1741 4.42938 63.7743 4.65678C63.3745 4.88418 63.0586 5.20798 62.8266 5.62818C62.5946 6.04838 62.4787 6.53037 62.4787 7.07416C62.4787 7.61794 62.5946 8.09993 62.8266 8.52013C63.0586 8.94033 63.3745 9.2666 63.7743 9.49894C64.1741 9.73129 64.6257 9.84746 65.1291 9.84746C65.6325 9.84746 66.0841 9.73129 66.4839 9.49894C66.8837 9.2666 67.1971 8.94033 67.4242 8.52013C67.6512 8.09993 67.7647 7.61794 67.7647 7.07416C67.7647 6.53037 67.6512 6.04838 67.4242 5.62818C67.1971 5.20798 66.8837 4.88418 66.4839 4.65678C66.0841 4.42938 65.6325 4.31568 65.1291 4.31568ZM94.6393 4.31568C94.1359 4.31568 93.6843 4.42938 93.2845 4.65678C92.8847 4.88418 92.5688 5.20798 92.3368 5.62818C92.1049 6.04838 91.9889 6.53037 91.9889 7.07416C91.9889 7.61794 92.1049 8.09993 92.3368 8.52013C92.5688 8.94033 92.8847 9.2666 93.2845 9.49894C93.6843 9.73129 94.1359 9.84746 94.6393 9.84746C95.1329 9.84746 95.582 9.73129 95.9867 9.49894C96.3915 9.2666 96.7074 8.94033 96.9344 8.52013C97.1614 8.09993 97.2749 7.61794 97.2749 7.07416C97.2749 6.53037 97.1614 6.04838 96.9344 5.62818C96.7074 5.20798 96.3915 4.88418 95.9867 4.65678C95.582 4.42938 95.1329 4.31568 94.6393 4.31568ZM48.9007 4.31568C48.1011 4.31568 47.4496 4.5505 46.9462 5.02013C46.4428 5.48976 46.191 6.10523 46.191 6.86653C46.191 7.36088 46.307 7.80332 46.539 8.19386C46.771 8.5844 47.0918 8.88842 47.5014 9.10594C47.9111 9.32345 48.3775 9.43221 48.9007 9.43221C49.414 9.43221 49.8755 9.32345 50.2851 9.10594C50.6948 8.88842 51.0156 8.5844 51.2476 8.19386C51.4796 7.80332 51.5956 7.36088 51.5956 6.86653C51.5956 6.10523 51.3438 5.48976 50.8404 5.02013C50.337 4.5505 49.6904 4.31568 48.9007 4.31568Z" fill="white"/>
<path d="M115.499 10.9176C114.799 10.9176 114.168 10.761 113.607 10.4478C113.045 10.1255 112.603 9.68335 112.28 9.12151C111.958 8.55967 111.797 7.92414 111.797 7.21493C111.797 6.50572 111.958 5.8702 112.28 5.30835C112.603 4.74651 113.045 4.30901 113.607 3.99585C114.168 3.68269 114.799 3.52612 115.499 3.52612C116.199 3.52612 116.83 3.68269 117.392 3.99585C117.954 4.30901 118.391 4.74651 118.705 5.30835C119.027 5.8702 119.188 6.50572 119.188 7.21493C119.188 7.92414 119.027 8.55967 118.705 9.12151C118.391 9.68335 117.954 10.1255 117.392 10.4478C116.83 10.761 116.199 10.9176 115.499 10.9176ZM115.499 10.0472C116.015 10.0472 116.476 9.93204 116.881 9.70177C117.295 9.4623 117.618 9.12612 117.848 8.69322C118.078 8.26033 118.193 7.76756 118.193 7.21493C118.193 6.6623 118.078 6.16954 117.848 5.73664C117.618 5.30375 117.295 4.97217 116.881 4.74191C116.476 4.50243 116.015 4.38269 115.499 4.38269C114.984 4.38269 114.518 4.50243 114.104 4.74191C113.699 4.97217 113.376 5.30375 113.137 5.73664C112.907 6.16954 112.791 6.6623 112.791 7.21493C112.791 7.76756 112.907 8.26033 113.137 8.69322C113.376 9.12612 113.699 9.4623 114.104 9.70177C114.518 9.93204 114.984 10.0472 115.499 10.0472Z" fill="white"/>
<path d="M122.13 5.00441C122.361 4.51625 122.701 4.14783 123.153 3.89914C123.613 3.65046 124.18 3.52612 124.852 3.52612V4.47941L124.617 4.46559C123.853 4.46559 123.254 4.70046 122.821 5.1702C122.388 5.63993 122.172 6.29848 122.172 7.14585V10.8485H121.191V3.58138H122.13V5.00441Z" fill="white"/>
<path d="M126.628 3.58138H127.609V10.8485H126.628V3.58138ZM127.125 1.99256C126.923 1.99256 126.752 1.92348 126.614 1.78533C126.476 1.64717 126.407 1.48138 126.407 1.28796C126.407 1.10375 126.476 0.942563 126.614 0.804405C126.752 0.666247 126.923 0.597168 127.125 0.597168C127.328 0.597168 127.499 0.666247 127.637 0.804405C127.775 0.933352 127.844 1.08993 127.844 1.27414C127.844 1.47677 127.775 1.64717 127.637 1.78533C127.499 1.92348 127.328 1.99256 127.125 1.99256Z" fill="white"/>
<path d="M137.067 3.58138V9.96427C137.067 11.1985 136.763 12.1103 136.155 12.6998C135.556 13.2985 134.649 13.5978 133.433 13.5978C132.761 13.5978 132.121 13.4965 131.513 13.2939C130.914 13.1005 130.426 12.8287 130.048 12.4788L130.546 11.7327C130.896 12.0459 131.319 12.2899 131.817 12.4649C132.323 12.6399 132.853 12.7274 133.406 12.7274C134.327 12.7274 135.004 12.511 135.436 12.0781C135.869 11.6544 136.086 10.9912 136.086 10.0886V9.16296C135.782 9.62349 135.381 9.97349 134.884 10.213C134.396 10.4524 133.852 10.5722 133.254 10.5722C132.572 10.5722 131.95 10.4248 131.388 10.1301C130.836 9.82612 130.398 9.40704 130.076 8.87283C129.763 8.32941 129.606 7.71691 129.606 7.03533C129.606 6.35375 129.763 5.74585 130.076 5.21164C130.398 4.67743 130.836 4.26296 131.388 3.96822C131.941 3.67348 132.563 3.52612 133.254 3.52612C133.871 3.52612 134.428 3.65046 134.925 3.89914C135.423 4.14783 135.823 4.50704 136.127 4.97677V3.58138H137.067ZM133.35 9.70177C133.875 9.70177 134.35 9.59125 134.773 9.3702C135.197 9.13993 135.524 8.82217 135.754 8.41691C135.994 8.01164 136.113 7.55112 136.113 7.03533C136.113 6.51954 135.994 6.06362 135.754 5.66756C135.524 5.2623 135.197 4.94914 134.773 4.72809C134.359 4.49783 133.884 4.38269 133.35 4.38269C132.825 4.38269 132.351 4.49322 131.927 4.71427C131.513 4.93533 131.186 5.24848 130.946 5.65375C130.716 6.05901 130.601 6.51954 130.601 7.03533C130.601 7.55112 130.716 8.01164 130.946 8.41691C131.186 8.82217 131.513 9.13993 131.927 9.3702C132.351 9.59125 132.825 9.70177 133.35 9.70177Z" fill="white"/>
<path d="M139.81 3.58138H140.791V10.8485H139.81V3.58138ZM140.307 1.99256C140.105 1.99256 139.934 1.92348 139.796 1.78533C139.658 1.64717 139.589 1.48138 139.589 1.28796C139.589 1.10375 139.658 0.942563 139.796 0.804405C139.934 0.666247 140.105 0.597168 140.307 0.597168C140.51 0.597168 140.68 0.666247 140.818 0.804405C140.956 0.933352 141.026 1.08993 141.026 1.27414C141.026 1.47677 140.956 1.64717 140.818 1.78533C140.68 1.92348 140.51 1.99256 140.307 1.99256Z" fill="white"/>
<path d="M147.223 3.52612C148.135 3.52612 148.858 3.79322 149.392 4.32743C149.935 4.85243 150.207 5.62151 150.207 6.63467V10.8485H149.226V6.73138C149.226 5.97612 149.037 5.40046 148.66 5.00441C148.282 4.60835 147.743 4.41033 147.043 4.41033C146.26 4.41033 145.638 4.6452 145.178 5.11493C144.727 5.57546 144.501 6.21559 144.501 7.03533V10.8485H143.52V3.58138H144.46V4.92151C144.727 4.47941 145.095 4.13862 145.565 3.89914C146.044 3.65046 146.596 3.52612 147.223 3.52612Z" fill="white"/>
<path d="M155.412 3.52612C156.361 3.52612 157.088 3.76559 157.595 4.24454C158.102 4.71427 158.355 5.41427 158.355 6.34454V10.8485H157.415V9.71559C157.194 10.0932 156.867 10.388 156.434 10.5998C156.011 10.8116 155.504 10.9176 154.915 10.9176C154.104 10.9176 153.459 10.7241 152.981 10.3373C152.502 9.95046 152.262 9.43927 152.262 8.80375C152.262 8.18664 152.483 7.68927 152.925 7.31164C153.377 6.93401 154.09 6.7452 155.067 6.7452H157.374V6.30309C157.374 5.67677 157.199 5.20243 156.849 4.88006C156.499 4.54848 155.988 4.38269 155.315 4.38269C154.855 4.38269 154.413 4.46098 153.989 4.61756C153.565 4.76493 153.202 4.97217 152.898 5.23927L152.456 4.50704C152.824 4.19388 153.266 3.95441 153.782 3.78862C154.298 3.61362 154.841 3.52612 155.412 3.52612ZM155.067 10.1439C155.619 10.1439 156.094 10.0195 156.49 9.77085C156.886 9.51296 157.181 9.14454 157.374 8.66559V7.47743H155.094C153.851 7.47743 153.229 7.91033 153.229 8.77612C153.229 9.1998 153.39 9.53598 153.713 9.78467C154.035 10.0241 154.486 10.1439 155.067 10.1439Z" fill="white"/>
<path d="M161.019 0.597168H162V10.8485H161.019V0.597168Z" fill="white"/>
</svg>
